<svg width="500" height="500" viewBox="0 0 500 500" fill="none" xmlns="http://www.w3.org/2000/svg">
<g clip-path="url(#clip0_2189_6638)">
<rect width="500" height="500" rx="248" fill="#7F9BCB"/>
<path d="M136.581 318.08H152.457V355.242H136.581C126.32 355.242 118 346.923 118 336.66C118 326.398 126.32 318.08 136.581 318.08Z" fill="#CFDAEE"/>
<path d="M139.781 336.663C139.781 340.15 142.609 342.977 146.095 342.977C149.582 342.977 152.408 340.15 152.408 336.663C152.408 333.176 149.582 330.35 146.095 330.35C142.609 330.35 139.781 333.176 139.781 336.663Z" fill="#89A5D4"/>
<path d="M363.907 318.08H348.031V355.242H363.907C374.169 355.242 382.488 346.923 382.488 336.66C382.488 326.398 374.169 318.08 363.907 318.08Z" fill="#CFDAEE"/>
<path d="M360.705 336.663C360.705 340.15 357.879 342.977 354.392 342.977C350.905 342.977 348.078 340.15 348.078 336.663C348.078 333.176 350.905 330.35 354.392 330.35C357.879 330.35 360.705 333.176 360.705 336.663Z" fill="#525DA5"/>
<path d="M347.948 210.776L348.161 458.998C348.161 512.963 304.438 556.713 250.486 556.766L250.273 210.776H347.948Z" fill="#89A5D4"/>
<path d="M250.271 210.774L250.484 556.764C250.451 556.764 250.42 556.766 250.388 556.766C196.392 556.766 152.618 512.993 152.618 458.996L152.406 210.774H250.271Z" fill="#CFDAEE"/>
<path d="M266.826 301.751V362.586H250.273V283.452C259.424 283.509 266.826 291.677 266.826 301.751Z" fill="#4A66AD"/>
<path d="M233.516 301.751C233.516 291.642 240.969 283.447 250.165 283.447C250.196 283.447 250.227 283.452 250.259 283.452V362.586H233.516V301.751Z" fill="#959DC8"/>
<path d="M338.166 362.592C338.166 372.008 330.534 379.641 321.118 379.641C311.704 379.641 304.07 372.008 304.07 362.592C304.07 353.178 311.704 345.545 321.118 345.545C330.534 345.545 338.166 353.178 338.166 362.592Z" fill="#CFDAEE"/>
<path d="M196.268 362.592C196.268 372.008 188.636 379.641 179.22 379.641C169.805 379.641 162.172 372.008 162.172 362.592C162.172 353.178 169.805 345.545 179.22 345.545C188.636 345.545 196.268 353.178 196.268 362.592Z" fill="#89A5D4"/>
<path d="M140.394 457.127V451.818V442.141C130.762 442.141 122.953 434.333 122.953 424.701C122.953 415.068 130.762 407.26 140.394 407.26H152.4V452.141V456.696V490.023H140.394V457.127Z" fill="#4A66AD"/>
<path d="M348 456.696V452.141V407.26H360.007C369.639 407.26 377.447 415.068 377.447 424.701C377.447 434.333 369.639 442.141 360.007 442.141V451.818V457.127V490.023H348V456.696Z" fill="#4A66AD"/>
<path d="M348.033 407.26L348.246 459.156H250.486L250.273 407.26H348.033Z" fill="#4A66AD"/>
<path d="M152.406 407.26H250.269L250.482 459.156H152.619L152.406 407.26Z" fill="#959DC8"/>
<path d="M226.854 113.569C183.46 123.313 152.406 163.683 152.406 207.672L152.408 234.656C196.543 221.752 228.782 180.976 228.782 132.671C228.782 126.185 228.201 119.835 227.087 113.67L226.854 113.569Z" fill="#959DC8"/>
<path d="M177.212 143.139C260.885 56.0534 374.071 172.033 374.071 172.033C368.074 190.613 356.83 208.175 340.615 222.302C296.371 260.843 221.782 258.058 190.588 214.235C165.648 179.199 172.238 148.317 177.212 143.139Z" fill="#4A66AD"/>
<path d="M177.438 288.469H177.464C177.456 288.302 177.438 288.137 177.438 287.969C177.438 282.49 181.879 278.05 187.357 278.05C192.834 278.05 197.274 282.49 197.274 287.969C197.274 288.137 197.258 288.302 197.25 288.469H197.274V313.729H197.227C196.74 318.753 192.508 322.68 187.357 322.68C182.205 322.68 177.974 318.753 177.488 313.729H177.438V288.469Z" fill="black"/>
<path d="M179.773 287.12C179.773 282.923 183.176 279.521 187.373 279.521C191.57 279.521 194.973 282.923 194.973 287.12C194.973 291.317 191.57 294.719 187.373 294.719C183.176 294.719 179.773 291.317 179.773 287.12Z" fill="white"/>
<path d="M303.078 312.261H303.104C303.094 312.428 303.078 312.593 303.078 312.761C303.078 318.24 307.519 322.68 312.997 322.68C318.475 322.68 322.915 318.24 322.915 312.761C322.915 312.593 322.899 312.428 322.89 312.261H322.915V287.001H322.867C322.379 281.978 318.147 278.05 312.997 278.05C307.846 278.05 303.614 281.978 303.128 287.001H303.078V312.261Z" fill="black"/>
<path d="M320.59 287.12C320.59 282.923 317.187 279.521 312.99 279.521C308.793 279.521 305.391 282.923 305.391 287.12C305.391 291.317 308.793 294.719 312.99 294.719C317.187 294.719 320.59 291.317 320.59 287.12Z" fill="white"/>
<path d="M317.183 233.486H308.808C306.883 233.486 305.32 235.047 305.32 236.974C305.32 238.9 306.883 240.461 308.808 240.461H317.183C319.11 240.461 320.671 238.9 320.671 236.974C320.671 235.047 319.11 233.486 317.183 233.486Z" fill="black"/>
<path d="M191.55 233.486H183.175C181.249 233.486 179.688 235.047 179.688 236.974C179.688 238.9 181.249 240.461 183.175 240.461H191.55C193.476 240.461 195.037 238.9 195.037 236.974C195.037 235.047 193.476 233.486 191.55 233.486Z" fill="black"/>
<path d="M250.218 358.328C230.44 358.328 212.871 345.71 204.071 333.925L204.058 333.933C201.291 330.32 196.946 327.979 192.043 327.979C183.683 327.979 176.906 334.756 176.906 343.117C176.906 345.933 177.69 348.562 179.03 350.82L179.018 350.828C191 373.163 218.421 388.727 250.283 388.727H250.305V358.326C250.276 358.326 250.247 358.328 250.218 358.328Z" fill="white"/>
<path d="M308.409 327.979C302.987 327.979 298.245 330.838 295.571 335.122L295.557 335.115C286.306 349.01 269.501 358.297 250.312 358.326V388.727C282.755 388.72 310.104 373.322 321.714 350.343C321.723 350.331 321.997 349.757 321.997 349.757C322.98 347.75 323.547 345.502 323.547 343.117C323.547 334.756 316.769 327.979 308.409 327.979Z" fill="#EFEEEF"/>
<path d="M250.338 375.297C222.424 375.297 197.176 360.014 186.016 336.36L189.293 334.814C199.859 357.204 223.82 371.672 250.338 371.672C277.425 371.672 301.434 357.029 311.505 334.364L314.818 335.837C304.166 359.809 278.857 375.297 250.338 375.297Z" fill="#7DA6D7"/>
<path d="M179.172 343.868C179.172 351.25 185.156 357.234 192.538 357.234C199.92 357.234 205.905 351.25 205.905 343.868C205.905 336.486 199.92 330.502 192.538 330.502C185.156 330.502 179.172 336.486 179.172 343.868Z" fill="#FFCA05"/>
</g>
<rect x="13" y="13" width="474" height="474" rx="235" stroke="#4A66AD" stroke-width="26"/>
<defs>
<clipPath id="clip0_2189_6638">
<rect width="500" height="500" rx="248" fill="white"/>
</clipPath>
</defs>
</svg>
